<?xml version="1.0" encoding="UTF-8" standalone="no"?>
<!-- Created with Inkscape (http://www.inkscape.org/) -->

<svg
   xmlns:dc="http://purl.org/dc/elements/1.1/"
   xmlns:cc="http://creativecommons.org/ns#"
   xmlns:rdf="http://www.w3.org/1999/02/22-rdf-syntax-ns#"
   xmlns:svg="http://www.w3.org/2000/svg"
   xmlns="http://www.w3.org/2000/svg"
   xmlns:xlink="http://www.w3.org/1999/xlink"
   xmlns:sodipodi="http://sodipodi.sourceforge.net/DTD/sodipodi-0.dtd"
   xmlns:inkscape="http://www.inkscape.org/namespaces/inkscape"
   width="1024"
   height="600"
   viewBox="0 0 1024 600.00001"
   id="svg2"
   version="1.1"
   inkscape:version="0.91 r13725"
   sodipodi:docname="bg.svg"
   inkscape:export-filename="/home/khairul/Projects/2dWaterTest/sprites/bg.png"
   inkscape:export-xdpi="90"
   inkscape:export-ydpi="90">
  <defs
     id="defs4">
    <linearGradient
       inkscape:collect="always"
       id="linearGradient4198">
      <stop
         style="stop-color:#ffffff;stop-opacity:1;"
         offset="0"
         id="stop4200" />
      <stop
         style="stop-color:#ffffff;stop-opacity:0;"
         offset="1"
         id="stop4202" />
    </linearGradient>
    <linearGradient
       inkscape:collect="always"
       id="linearGradient4138">
      <stop
         style="stop-color:#a4b5f3;stop-opacity:1;"
         offset="0"
         id="stop4140" />
      <stop
         style="stop-color:#c3c9de;stop-opacity:0.51764709"
         offset="1"
         id="stop4142" />
    </linearGradient>
    <linearGradient
       inkscape:collect="always"
       xlink:href="#linearGradient4138"
       id="linearGradient4144"
       x1="461.42859"
       y1="1080.9336"
       x2="503.99997"
       y2="459.50504"
       gradientUnits="userSpaceOnUse" />
    <linearGradient
       inkscape:collect="always"
       xlink:href="#linearGradient4198"
       id="linearGradient4204"
       x1="224.28488"
       y1="70.714851"
       x2="240.00027"
       y2="202.14342"
       gradientUnits="userSpaceOnUse"
       gradientTransform="matrix(0.62105419,0,0,0.62105419,34.646157,472.39226)" />
    <linearGradient
       inkscape:collect="always"
       xlink:href="#linearGradient4198"
       id="linearGradient4208"
       gradientUnits="userSpaceOnUse"
       x1="224.28488"
       y1="70.714851"
       x2="240.00027"
       y2="202.14342"
       gradientTransform="matrix(0.70000123,0,0,0.70000123,665.99963,466.79075)" />
    <linearGradient
       inkscape:collect="always"
       xlink:href="#linearGradient4198"
       id="linearGradient4212"
       gradientUnits="userSpaceOnUse"
       gradientTransform="matrix(0.62105419,0,0,0.62105419,354.64616,550.96369)"
       x1="224.28488"
       y1="70.714851"
       x2="240.00027"
       y2="202.14342" />
  </defs>
  <sodipodi:namedview
     id="base"
     pagecolor="#ffffff"
     bordercolor="#666666"
     borderopacity="1.0"
     inkscape:pageopacity="0.0"
     inkscape:pageshadow="2"
     inkscape:zoom="0.7"
     inkscape:cx="479.83684"
     inkscape:cy="291.01103"
     inkscape:document-units="px"
     inkscape:current-layer="layer1"
     showgrid="false"
     units="px"
     inkscape:window-width="1366"
     inkscape:window-height="705"
     inkscape:window-x="0"
     inkscape:window-y="32"
     inkscape:window-maximized="1"
     showguides="false" />
  <metadata
     id="metadata7">
    <rdf:RDF>
      <cc:Work
         rdf:about="">
        <dc:format>image/svg+xml</dc:format>
        <dc:type
           rdf:resource="http://purl.org/dc/dcmitype/StillImage" />
        <dc:title></dc:title>
      </cc:Work>
    </rdf:RDF>
  </metadata>
  <g
     inkscape:label="Layer 1"
     inkscape:groupmode="layer"
     id="layer1"
     transform="translate(0,-452.36216)">
    <rect
       style="fill:url(#linearGradient4144);fill-opacity:1;stroke:none;stroke-width:8.19999981;stroke-miterlimit:4;stroke-dasharray:none;stroke-opacity:1"
       id="rect4136"
       width="1024"
       height="600"
       x="0"
       y="450.93359" />
    <path
       style="fill:url(#linearGradient4204);fill-opacity:1;stroke:none;stroke-width:5;stroke-miterlimit:4;stroke-dasharray:none;stroke-opacity:1"
       d="m 174.38335,505.21958 a 43.917404,33.270761 0 0 0 -38.82802,17.76797 45.248232,27.060219 0 0 0 -44.127596,27.03648 45.248232,27.060219 0 0 0 45.248406,27.06074 45.248232,27.060219 0 0 0 28.52846,-6.07468 43.917404,33.270761 0 0 0 9.17875,0.75084 43.917404,33.270761 0 0 0 8.64624,-0.68535 47.022675,26.172998 0 0 0 29.94767,6.00919 47.022675,26.172998 0 0 0 47.02302,-26.17404 47.022675,26.172998 0 0 0 -45.66325,-26.13522 43.917404,33.270761 0 0 0 -39.95368,-19.55593 z"
       id="path4191"
       inkscape:connector-curvature="0" />
    <path
       id="path4206"
       d="m 823.49991,503.79101 a 49.500088,37.500067 0 0 0 -43.76375,20.0266 51.000087,30.500054 0 0 0 -49.737,30.47329 51.000087,30.500054 0 0 0 51.00028,30.50065 51.000087,30.500054 0 0 0 32.15494,-6.84689 49.500088,37.500067 0 0 0 10.34553,0.84629 49.500088,37.500067 0 0 0 9.74533,-0.77247 53.000094,29.500052 0 0 0 33.75455,6.77307 53.000094,29.500052 0 0 0 53.00048,-29.50123 53.000094,29.500052 0 0 0 -51.46786,-29.45748 49.500088,37.500067 0 0 0 -45.0325,-22.04183 z"
       style="fill:url(#linearGradient4208);fill-opacity:1;stroke:none;stroke-width:5;stroke-miterlimit:4;stroke-dasharray:none;stroke-opacity:1"
       inkscape:connector-curvature="0" />
    <path
       inkscape:connector-curvature="0"
       id="path4210"
       d="m 494.38335,583.79101 a 43.917404,33.270761 0 0 0 -38.82802,17.76797 45.248232,27.060219 0 0 0 -44.1276,27.03648 45.248232,27.060219 0 0 0 45.24841,27.06074 45.248232,27.060219 0 0 0 28.52846,-6.07468 43.917404,33.270761 0 0 0 9.17875,0.75084 43.917404,33.270761 0 0 0 8.64624,-0.68535 47.022675,26.172998 0 0 0 29.94767,6.00919 47.022675,26.172998 0 0 0 47.02302,-26.17404 47.022675,26.172998 0 0 0 -45.66325,-26.13522 43.917404,33.270761 0 0 0 -39.95368,-19.55593 z"
       style="fill:url(#linearGradient4212);fill-opacity:1;stroke:none;stroke-width:5;stroke-miterlimit:4;stroke-dasharray:none;stroke-opacity:1" />
  </g>
</svg>
